<svg xmlns="http://www.w3.org/2000/svg" xmlns:xlink="http://www.w3.org/1999/xlink" version="1.1" x="0px" y="0px" viewBox="0 0 100 125" enable-background="new 0 0 100 100" xml:space="preserve"><g><path d="M91.921,46.233c-0.924-0.05-1.704,0.38-2.252,1.028l-14.824,0.022c0.204-0.089,0.409-0.158,0.595-0.21   c0.014-0.004,0.022-0.012,0.034-0.017c0.131-0.032,0.236-0.133,0.217-0.312l-0.11-1.046c-0.023-0.221-0.2-0.388-0.432-0.329   c-0.721,0.183-1.492,0.093-1.791-0.617c0.239-0.631,0.953-1.078,1.55-1.312c0.037-0.015,0.065-0.037,0.092-0.059   c0.001-0.001,0.002-0.001,0.003-0.002c0.018-0.015,0.034-0.03,0.048-0.047c0.076-0.075,0.123-0.18,0.095-0.312   c-0.073-0.343-0.146-0.686-0.219-1.029c-0.036-0.171-0.253-0.3-0.42-0.239c-0.678,0.25-1.504,0.289-1.877-0.402   c0.173-0.677,0.848-1.19,1.451-1.503c0.016-0.008,0.024-0.021,0.038-0.031c0.006-0.004,0.011-0.009,0.017-0.014   c0.027-0.022,0.052-0.044,0.069-0.07c0.009-0.013,0.013-0.029,0.02-0.044c0.008-0.02,0.019-0.04,0.022-0.061   c0.005-0.027,0.003-0.057,0-0.088c-0.001-0.01-0.001-0.02-0.003-0.031c-0.003-0.016,0-0.03-0.005-0.048   c-0.108-0.333-0.217-0.667-0.325-1c-0.072-0.22-0.299-0.304-0.502-0.204c-0.675,0.331-1.43,0.379-1.869-0.247   c0.104-0.668,0.73-1.254,1.263-1.606c0.115-0.076,0.155-0.187,0.151-0.296c0.001-0.018,0-0.036-0.001-0.054   c-0.001-0.006-0.002-0.011-0.004-0.017c-0.005-0.033-0.007-0.067-0.023-0.101c-0.143-0.32-0.285-0.64-0.428-0.961   c-0.074-0.167-0.323-0.213-0.467-0.123c-0.623,0.391-1.4,0.574-1.908-0.019c0.03-0.699,0.601-1.348,1.121-1.775   c0.139-0.115,0.137-0.261,0.066-0.377c-0.006-0.013-0.005-0.025-0.013-0.037c-0.175-0.304-0.35-0.607-0.526-0.911   c-0.12-0.208-0.367-0.202-0.537-0.069c-0.595,0.468-1.318,0.646-1.873,0.131c-0.035-0.677,0.474-1.39,0.918-1.84   c0.01-0.01,0.013-0.022,0.021-0.033c0.098-0.094,0.138-0.235,0.032-0.381c-0.206-0.284-0.412-0.567-0.618-0.851   c-0.129-0.178-0.367-0.234-0.537-0.069c-0.532,0.518-1.247,0.83-1.861,0.363c-0.109-0.664,0.285-1.408,0.685-1.91   c0.023-0.028,0.033-0.059,0.046-0.089c0.004-0.007,0.008-0.014,0.011-0.022c0.005-0.015,0.01-0.029,0.013-0.045   c0.033-0.105,0.024-0.224-0.07-0.328c-0.235-0.26-0.469-0.521-0.704-0.781c-0.116-0.129-0.368-0.138-0.483,0   c-0.461,0.554-1.16,1.006-1.829,0.593c-0.188-0.671,0.139-1.454,0.503-2.024c0.01-0.015,0.01-0.029,0.017-0.044   c0.006-0.012,0.009-0.024,0.014-0.037c0.009-0.026,0.018-0.05,0.02-0.075c0.003-0.027-0.002-0.055-0.007-0.082   c-0.002-0.01-0.002-0.021-0.005-0.03c-0.01-0.032-0.03-0.062-0.053-0.093c-0.003-0.004-0.006-0.008-0.009-0.012   c-0.011-0.013-0.016-0.028-0.03-0.04c-0.261-0.235-0.521-0.469-0.782-0.704c-0.17-0.153-0.411-0.12-0.537,0.069   c-0.415,0.624-1.05,1.051-1.743,0.724c-0.244-0.629,0.003-1.45,0.288-2.02c0.059-0.118,0.043-0.228-0.008-0.319   c-0.024-0.055-0.057-0.107-0.115-0.148c-0.284-0.206-0.567-0.412-0.851-0.618c-0.146-0.106-0.388-0.031-0.467,0.123   c-0.337,0.647-0.929,1.206-1.664,0.942c-0.324-0.619-0.154-1.468,0.083-2.096c0.063-0.167-0.01-0.293-0.127-0.359   c-0.011-0.008-0.017-0.019-0.03-0.027c-0.304-0.175-0.607-0.351-0.911-0.526c-0.206-0.119-0.422,0.001-0.502,0.204   c-0.275,0.702-0.819,1.225-1.557,1.053c-0.369-0.568-0.285-1.44-0.126-2.051c0.004-0.014,0-0.025,0.002-0.039   c0.04-0.131,0.007-0.273-0.159-0.347c-0.32-0.143-0.64-0.285-0.961-0.428c-0.199-0.088-0.438-0.026-0.502,0.204   c-0.197,0.711-0.664,1.347-1.428,1.248c-0.432-0.533-0.454-1.408-0.365-1.995c0.005-0.034-0.001-0.063-0.004-0.094   c0-0.014,0-0.026-0.002-0.04c-0.002-0.01-0.004-0.019-0.007-0.028c-0.021-0.111-0.088-0.214-0.226-0.259   c-0.333-0.108-0.667-0.217-1-0.325c-0.164-0.053-0.391,0.061-0.42,0.239c-0.118,0.707-0.502,1.457-1.287,1.431   c-0.5-0.488-0.608-1.33-0.577-2.007c0.001-0.017-0.006-0.029-0.007-0.044c-0.001-0.015-0.004-0.029-0.007-0.044   c-0.005-0.025-0.009-0.05-0.019-0.071c-0.012-0.027-0.031-0.05-0.051-0.072c-0.006-0.006-0.01-0.014-0.016-0.019   c-0.025-0.023-0.058-0.04-0.094-0.054c-0.005-0.002-0.009-0.004-0.013-0.006c-0.016-0.006-0.026-0.016-0.044-0.019   c-0.343-0.073-0.686-0.146-1.029-0.219c-0.226-0.048-0.418,0.1-0.432,0.329c-0.044,0.712-0.368,1.355-1.059,1.469   c-0.045-0.008-0.089-0.018-0.134-0.026c-0.486-0.436-0.678-1.226-0.715-1.842c-0.008-0.135-0.081-0.223-0.174-0.275   c-0.018-0.013-0.038-0.023-0.06-0.033c-0.001,0-0.002-0.001-0.003-0.001c-0.033-0.014-0.065-0.029-0.105-0.033l-1.046-0.11   c-0.18-0.019-0.349,0.17-0.342,0.342c0.026,0.642-0.15,1.314-0.71,1.565c-0.127-0.01-0.252-0.022-0.379-0.031   c-0.501-0.407-0.757-1.137-0.858-1.75c-0.029-0.177-0.157-0.247-0.292-0.243c-0.013-0.001-0.023-0.008-0.037-0.008h-1.052   c-0.243,0-0.361,0.217-0.329,0.432c0.09,0.614-0.054,1.188-0.5,1.503c-0.179,0.005-0.358,0.012-0.536,0.019   c-0.472-0.369-0.777-1.025-0.923-1.555c-0.004-0.014-0.012-0.022-0.017-0.034c-0.032-0.131-0.133-0.236-0.312-0.217   c-0.349,0.037-0.697,0.073-1.046,0.11c-0.221,0.023-0.388,0.2-0.329,0.433c0.142,0.56,0.109,1.144-0.241,1.519   c-0.221,0.03-0.44,0.068-0.66,0.104c-0.478-0.316-0.832-0.882-1.028-1.383c-0.015-0.037-0.037-0.065-0.059-0.092   c-0.001-0.001-0.001-0.002-0.002-0.003c-0.015-0.018-0.03-0.034-0.047-0.048c-0.075-0.076-0.18-0.123-0.312-0.095   c-0.343,0.073-0.686,0.146-1.029,0.219c-0.171,0.036-0.3,0.253-0.239,0.42c0.191,0.518,0.256,1.121-0.031,1.544   c-0.229,0.059-0.454,0.13-0.681,0.194c-0.521-0.269-0.932-0.806-1.193-1.311c-0.008-0.016-0.021-0.024-0.031-0.038   c-0.004-0.006-0.009-0.011-0.014-0.017c-0.022-0.027-0.044-0.052-0.07-0.069c-0.013-0.009-0.028-0.013-0.043-0.02   c-0.021-0.009-0.04-0.019-0.062-0.022c-0.027-0.005-0.057-0.003-0.088,0c-0.01,0.001-0.02,0.001-0.031,0.003   c-0.016,0.003-0.03,0-0.048,0.005c-0.333,0.108-0.667,0.217-1,0.325c-0.22,0.072-0.304,0.299-0.204,0.502   c0.259,0.529,0.339,1.106,0.063,1.542c-0.195,0.075-0.388,0.155-0.581,0.233c-0.552-0.205-1.033-0.711-1.335-1.17   c-0.076-0.115-0.187-0.155-0.295-0.151c-0.018-0.001-0.036,0-0.055,0.001c-0.005,0.001-0.01,0.002-0.016,0.004   c-0.033,0.005-0.067,0.007-0.101,0.023c-0.32,0.143-0.64,0.285-0.961,0.428c-0.167,0.074-0.213,0.323-0.123,0.467   c0.329,0.524,0.505,1.156,0.2,1.646c-0.138,0.072-0.277,0.143-0.413,0.218c-0.623-0.115-1.194-0.606-1.581-1.077   c-0.114-0.139-0.261-0.137-0.377-0.066c-0.013,0.006-0.025,0.005-0.037,0.013c-0.304,0.175-0.607,0.351-0.911,0.526   c-0.208,0.12-0.202,0.367-0.069,0.537c0.433,0.55,0.61,1.208,0.229,1.742c-0.06,0.041-0.122,0.079-0.181,0.12   c-0.652-0.008-1.325-0.482-1.757-0.907c-0.01-0.01-0.022-0.013-0.033-0.021c-0.094-0.098-0.235-0.139-0.381-0.032   c-0.284,0.206-0.567,0.412-0.851,0.618c-0.178,0.129-0.234,0.367-0.069,0.537c0.518,0.532,0.83,1.247,0.363,1.861   c-0.664,0.109-1.408-0.285-1.91-0.685c-0.028-0.023-0.059-0.033-0.089-0.046c-0.007-0.004-0.014-0.008-0.022-0.011   c-0.015-0.005-0.029-0.01-0.045-0.013c-0.105-0.033-0.224-0.024-0.328,0.07c-0.26,0.235-0.521,0.469-0.781,0.704   c-0.129,0.116-0.138,0.368,0,0.483c0.554,0.461,1.006,1.16,0.593,1.829c-0.671,0.188-1.454-0.139-2.024-0.503   c-0.015-0.01-0.029-0.01-0.044-0.017c-0.012-0.006-0.024-0.009-0.037-0.014c-0.026-0.009-0.05-0.018-0.075-0.02   c-0.027-0.003-0.055,0.002-0.082,0.007c-0.01,0.002-0.021,0.002-0.03,0.005c-0.032,0.01-0.062,0.029-0.092,0.053   c-0.004,0.003-0.009,0.006-0.013,0.009c-0.013,0.011-0.028,0.016-0.04,0.03c-0.235,0.26-0.469,0.521-0.704,0.781   c-0.153,0.17-0.12,0.411,0.069,0.537c0.624,0.415,1.051,1.05,0.724,1.743c-0.629,0.244-1.45-0.003-2.02-0.288   c-0.118-0.059-0.229-0.043-0.319,0.008c-0.055,0.024-0.106,0.057-0.148,0.114c-0.206,0.284-0.412,0.567-0.618,0.851   c-0.106,0.146-0.031,0.388,0.123,0.467c0.647,0.337,1.206,0.929,0.942,1.664c-0.619,0.323-1.468,0.154-2.096-0.083   c-0.167-0.063-0.293,0.01-0.359,0.127c-0.008,0.011-0.019,0.017-0.027,0.03c-0.175,0.304-0.351,0.607-0.526,0.911   c-0.119,0.206,0.001,0.422,0.204,0.502c0.702,0.275,1.225,0.819,1.053,1.557c-0.568,0.369-1.44,0.285-2.051,0.126   c-0.014-0.004-0.025,0-0.039-0.002c-0.131-0.04-0.273-0.007-0.347,0.159c-0.143,0.32-0.285,0.64-0.428,0.961   c-0.088,0.199-0.026,0.438,0.204,0.502c0.711,0.197,1.347,0.664,1.248,1.428c-0.533,0.432-1.408,0.454-1.995,0.365   c-0.034-0.005-0.063,0.001-0.094,0.004c-0.014,0-0.026,0-0.04,0.002c-0.01,0.002-0.019,0.004-0.028,0.007   c-0.111,0.021-0.214,0.088-0.259,0.226c-0.108,0.333-0.217,0.667-0.325,1c-0.053,0.164,0.061,0.391,0.239,0.42   c0.707,0.118,1.457,0.502,1.431,1.287c-0.488,0.5-1.33,0.608-2.007,0.577c-0.017-0.001-0.029,0.006-0.044,0.007   c-0.015,0.001-0.029,0.004-0.044,0.007c-0.025,0.005-0.05,0.009-0.071,0.019c-0.027,0.012-0.05,0.031-0.072,0.051   c-0.006,0.006-0.014,0.01-0.019,0.016c-0.023,0.025-0.04,0.058-0.054,0.094c-0.002,0.005-0.004,0.009-0.006,0.013   c-0.006,0.016-0.016,0.026-0.019,0.044c-0.073,0.343-0.146,0.686-0.219,1.029c-0.048,0.226,0.1,0.418,0.329,0.432   c0.745,0.046,1.432,0.386,1.497,1.146c-0.423,0.527-1.257,0.724-1.896,0.761c-0.135,0.008-0.223,0.081-0.275,0.174   c-0.013,0.018-0.023,0.038-0.033,0.06c0,0.001-0.001,0.002-0.001,0.003c-0.014,0.033-0.029,0.065-0.033,0.105   c-0.037,0.349-0.073,0.697-0.11,1.046c-0.019,0.18,0.17,0.349,0.342,0.342c0.732-0.03,1.504,0.202,1.645,0.969   c-0.376,0.591-1.195,0.869-1.861,0.979c-0.177,0.029-0.247,0.157-0.243,0.292C5.006,49.563,5,49.573,5,49.587v1.052   c0,0.243,0.217,0.361,0.432,0.329c0.749-0.11,1.463,0.102,1.685,0.823C6.81,52.396,6.01,52.759,5.4,52.926   c-0.014,0.004-0.022,0.012-0.034,0.017c-0.131,0.032-0.235,0.133-0.217,0.312c0.037,0.349,0.073,0.697,0.11,1.046   c0.023,0.221,0.2,0.388,0.433,0.329c0.721-0.183,1.492-0.093,1.791,0.617c-0.239,0.631-0.953,1.078-1.55,1.312   c-0.037,0.015-0.065,0.037-0.093,0.059c-0.001,0.001-0.002,0.001-0.003,0.002c-0.018,0.015-0.034,0.03-0.048,0.047   c-0.076,0.075-0.123,0.18-0.095,0.312c0.073,0.343,0.146,0.686,0.219,1.029c0.036,0.171,0.253,0.3,0.42,0.239   c0.678-0.25,1.504-0.289,1.877,0.402c-0.174,0.677-0.848,1.19-1.451,1.503c-0.016,0.009-0.024,0.021-0.038,0.031   c-0.006,0.004-0.011,0.009-0.016,0.013c-0.027,0.022-0.053,0.044-0.069,0.071c-0.009,0.013-0.013,0.028-0.019,0.042   c-0.009,0.021-0.019,0.041-0.023,0.062c-0.005,0.027-0.003,0.057,0,0.088c0.001,0.01,0.001,0.02,0.003,0.031   c0.003,0.016,0,0.03,0.005,0.048c0.108,0.333,0.217,0.667,0.325,1c0.072,0.22,0.299,0.304,0.502,0.204   c0.675-0.331,1.43-0.379,1.869,0.247c-0.104,0.668-0.73,1.255-1.263,1.606c-0.115,0.076-0.155,0.187-0.151,0.295   c-0.001,0.018,0,0.036,0.001,0.055c0.001,0.005,0.002,0.01,0.004,0.016c0.005,0.034,0.008,0.067,0.023,0.102   c0.143,0.32,0.285,0.64,0.428,0.961c0.074,0.167,0.323,0.213,0.467,0.123c0.623-0.391,1.4-0.574,1.908,0.019   c-0.03,0.699-0.601,1.348-1.121,1.775c-0.139,0.114-0.137,0.261-0.066,0.377c0.006,0.013,0.005,0.025,0.013,0.037   c0.175,0.304,0.351,0.607,0.526,0.911c0.12,0.208,0.367,0.202,0.537,0.069c0.595-0.469,1.318-0.646,1.873-0.131   c0.035,0.677-0.474,1.39-0.918,1.84c-0.01,0.01-0.013,0.022-0.021,0.033c-0.098,0.094-0.139,0.235-0.032,0.381   c0.206,0.284,0.412,0.567,0.618,0.851c0.129,0.177,0.367,0.234,0.537,0.069c0.532-0.518,1.247-0.83,1.861-0.363   c0.109,0.664-0.285,1.408-0.685,1.91c-0.023,0.028-0.033,0.059-0.046,0.088c-0.004,0.007-0.008,0.015-0.012,0.022   c-0.005,0.015-0.01,0.029-0.013,0.044c-0.033,0.105-0.024,0.224,0.07,0.328c0.235,0.261,0.469,0.521,0.704,0.782   c0.116,0.129,0.368,0.138,0.483,0c0.461-0.554,1.16-1.006,1.829-0.593c0.188,0.671-0.139,1.454-0.503,2.024   c-0.01,0.015-0.01,0.029-0.017,0.044c-0.006,0.012-0.009,0.024-0.014,0.037c-0.009,0.026-0.018,0.051-0.02,0.075   c-0.003,0.027,0.002,0.055,0.007,0.083c0.002,0.01,0.002,0.02,0.005,0.03c0.01,0.032,0.03,0.062,0.053,0.093   c0.003,0.004,0.006,0.008,0.009,0.012c0.011,0.013,0.016,0.028,0.03,0.04c0.26,0.235,0.521,0.469,0.781,0.704   c0.17,0.153,0.411,0.12,0.537-0.069c0.415-0.624,1.05-1.051,1.743-0.724c0.244,0.629-0.003,1.45-0.288,2.02   c-0.059,0.118-0.043,0.229,0.008,0.319c0.024,0.055,0.057,0.106,0.114,0.148c0.284,0.206,0.567,0.412,0.851,0.618   c0.146,0.106,0.388,0.031,0.467-0.123c0.337-0.647,0.929-1.206,1.664-0.942c0.323,0.619,0.154,1.468-0.083,2.096   c-0.063,0.167,0.01,0.293,0.127,0.359c0.011,0.008,0.017,0.019,0.03,0.027c0.304,0.175,0.607,0.351,0.911,0.526   c0.206,0.119,0.422-0.001,0.502-0.204c0.275-0.702,0.819-1.225,1.557-1.053c0.369,0.568,0.285,1.44,0.126,2.051   c-0.004,0.014,0,0.025-0.002,0.039c-0.04,0.131-0.007,0.273,0.159,0.347c0.32,0.143,0.64,0.285,0.961,0.428   c0.199,0.088,0.438,0.026,0.502-0.204c0.197-0.711,0.664-1.347,1.428-1.248c0.432,0.534,0.454,1.408,0.365,1.995   c-0.005,0.034,0.001,0.063,0.004,0.094c0,0.014,0,0.026,0.002,0.04c0.002,0.01,0.004,0.019,0.007,0.028   c0.021,0.111,0.088,0.214,0.226,0.259c0.333,0.108,0.667,0.217,1,0.325c0.164,0.053,0.391-0.06,0.42-0.239   c0.118-0.707,0.502-1.457,1.287-1.431c0.5,0.488,0.608,1.33,0.577,2.007c-0.001,0.017,0.006,0.029,0.007,0.044   c0.001,0.015,0.004,0.029,0.007,0.043c0.005,0.025,0.009,0.05,0.019,0.071c0.012,0.027,0.031,0.05,0.051,0.072   c0.006,0.006,0.01,0.014,0.016,0.019c0.025,0.023,0.058,0.04,0.094,0.054c0.005,0.002,0.009,0.004,0.013,0.006   c0.016,0.006,0.026,0.016,0.044,0.019c0.343,0.073,0.686,0.146,1.029,0.219c0.226,0.048,0.418-0.1,0.432-0.329   c0.046-0.745,0.387-1.432,1.147-1.497c0.527,0.424,0.724,1.257,0.761,1.896c0.008,0.135,0.081,0.223,0.174,0.275   c0.018,0.013,0.038,0.023,0.06,0.033c0.001,0,0.002,0,0.002,0.001c0.033,0.014,0.065,0.029,0.106,0.033   c0.349,0.037,0.697,0.073,1.046,0.11c0.18,0.019,0.349-0.17,0.342-0.342c-0.03-0.732,0.203-1.504,0.969-1.645   c0.591,0.376,0.869,1.195,0.979,1.861c0.029,0.177,0.157,0.247,0.292,0.243c0.013,0.001,0.023,0.008,0.037,0.008h1.052   c0.243,0,0.361-0.217,0.329-0.433c-0.11-0.749,0.102-1.463,0.823-1.685c0.605,0.308,0.967,1.108,1.135,1.718   c0.004,0.014,0.012,0.022,0.017,0.034c0.032,0.131,0.133,0.235,0.312,0.217c0.349-0.037,0.697-0.073,1.046-0.11   c0.221-0.023,0.388-0.2,0.329-0.433c-0.183-0.721-0.093-1.492,0.617-1.791c0.631,0.239,1.078,0.953,1.312,1.55   c0.015,0.037,0.037,0.065,0.059,0.093c0.001,0.001,0.001,0.002,0.002,0.003c0.015,0.018,0.03,0.034,0.047,0.048   c0.075,0.076,0.18,0.123,0.312,0.095c0.343-0.073,0.686-0.146,1.029-0.219c0.171-0.036,0.3-0.253,0.239-0.42   c-0.25-0.678-0.289-1.504,0.402-1.877c0.677,0.173,1.19,0.848,1.503,1.451c0.008,0.016,0.021,0.024,0.031,0.038   c0.004,0.006,0.009,0.011,0.014,0.017c0.022,0.027,0.044,0.052,0.07,0.069c0.013,0.009,0.029,0.013,0.043,0.02   c0.021,0.008,0.04,0.019,0.062,0.022c0.027,0.005,0.057,0.003,0.088,0c0.01-0.001,0.02-0.001,0.031-0.003   c0.016-0.003,0.03,0,0.048-0.005c0.333-0.108,0.667-0.217,1-0.325c0.22-0.072,0.304-0.299,0.204-0.502   c-0.331-0.675-0.379-1.43,0.247-1.869c0.668,0.104,1.255,0.73,1.606,1.263c0.076,0.115,0.187,0.155,0.296,0.151   c0.018,0.001,0.036,0,0.054-0.001c0.006-0.001,0.011-0.002,0.016-0.004c0.033-0.005,0.067-0.007,0.101-0.023   c0.32-0.143,0.64-0.285,0.961-0.428c0.167-0.074,0.213-0.323,0.123-0.467c-0.391-0.623-0.574-1.4,0.019-1.908   c0.699,0.03,1.348,0.601,1.775,1.121c0.115,0.139,0.261,0.137,0.377,0.066c0.013-0.006,0.025-0.005,0.037-0.013   c0.304-0.175,0.607-0.35,0.911-0.526c0.208-0.12,0.202-0.367,0.069-0.537c-0.469-0.595-0.646-1.318-0.131-1.873   c0.677-0.035,1.39,0.474,1.84,0.918c0.01,0.01,0.022,0.013,0.033,0.021c0.094,0.098,0.235,0.139,0.381,0.032   c0.284-0.206,0.567-0.412,0.851-0.618c0.177-0.129,0.234-0.367,0.069-0.537c-0.518-0.532-0.83-1.247-0.363-1.861   c0.664-0.109,1.408,0.285,1.91,0.685c0.028,0.023,0.059,0.033,0.088,0.046c0.007,0.004,0.015,0.008,0.022,0.012   c0.015,0.005,0.029,0.01,0.044,0.013c0.105,0.033,0.224,0.024,0.328-0.07c0.261-0.235,0.521-0.469,0.782-0.704   c0.129-0.116,0.138-0.368,0-0.483c-0.554-0.461-1.006-1.16-0.593-1.829c0.671-0.188,1.454,0.139,2.024,0.503   c0.015,0.01,0.029,0.01,0.044,0.017c0.012,0.006,0.024,0.009,0.037,0.014c0.026,0.009,0.051,0.018,0.075,0.02   c0.027,0.003,0.055-0.002,0.083-0.007c0.01-0.002,0.02-0.002,0.03-0.005c0.032-0.01,0.063-0.03,0.093-0.053   c0.004-0.003,0.008-0.005,0.012-0.009c0.013-0.011,0.028-0.016,0.041-0.03c0.235-0.261,0.469-0.521,0.704-0.782   c0.153-0.17,0.12-0.411-0.069-0.537c-0.624-0.415-1.051-1.05-0.724-1.743c0.629-0.244,1.45,0.003,2.02,0.288   c0.118,0.059,0.228,0.043,0.319-0.008c0.055-0.024,0.107-0.057,0.148-0.115c0.206-0.284,0.412-0.567,0.618-0.851   c0.106-0.146,0.031-0.388-0.123-0.467c-0.647-0.337-1.206-0.929-0.942-1.664c0.619-0.324,1.468-0.154,2.096,0.083   c0.167,0.063,0.293-0.01,0.359-0.127c0.008-0.011,0.019-0.017,0.027-0.03c0.175-0.304,0.351-0.607,0.526-0.911   c0.119-0.206-0.001-0.422-0.204-0.502c-0.702-0.275-1.225-0.819-1.053-1.557c0.568-0.369,1.44-0.285,2.051-0.126   c0.014,0.004,0.025,0,0.039,0.002c0.131,0.04,0.273,0.007,0.347-0.159c0.143-0.32,0.285-0.64,0.428-0.961   c0.088-0.199,0.026-0.438-0.204-0.502c-0.711-0.197-1.347-0.664-1.248-1.428c0.534-0.432,1.408-0.454,1.995-0.365   c0.034,0.005,0.063-0.001,0.094-0.004c0.014,0,0.026,0,0.04-0.002c0.01-0.002,0.019-0.004,0.028-0.007   c0.111-0.021,0.214-0.088,0.259-0.226c0.108-0.333,0.217-0.667,0.325-1c0.053-0.164-0.06-0.391-0.239-0.42   c-0.707-0.118-1.457-0.502-1.431-1.287c0.488-0.5,1.33-0.608,2.007-0.577c0.017,0.001,0.029-0.006,0.044-0.007   c0.015-0.001,0.029-0.004,0.043-0.007c0.025-0.005,0.05-0.009,0.071-0.019c0.027-0.012,0.05-0.031,0.072-0.051   c0.006-0.006,0.014-0.01,0.019-0.016c0.023-0.025,0.04-0.058,0.054-0.094c0.002-0.005,0.004-0.009,0.006-0.013   c0.006-0.016,0.016-0.026,0.019-0.044c0.073-0.343,0.146-0.686,0.219-1.029c0.048-0.226-0.1-0.418-0.329-0.432   c-0.745-0.046-1.432-0.387-1.497-1.147c0.424-0.527,1.257-0.724,1.896-0.761c0.135-0.008,0.223-0.081,0.275-0.174   c0.013-0.018,0.023-0.038,0.033-0.06c0-0.001,0-0.002,0.001-0.002c0.014-0.033,0.029-0.065,0.033-0.106l0.11-1.046   c0.019-0.18-0.17-0.349-0.342-0.342c-0.732,0.03-1.504-0.203-1.645-0.969c0.08-0.125,0.177-0.238,0.291-0.337   c5.222-0.008,10.443-0.015,15.665-0.023c0.546,0.595,1.319,0.972,2.237,1.022c1.733,0.093,2.989-1.478,3.075-3.075   C95.089,47.575,93.518,46.319,91.921,46.233z M22.253,77.047c-0.176-0.137-0.353-0.273-0.529-0.41   c0.221,0.151,0.444,0.299,0.669,0.445C22.345,77.061,22.298,77.046,22.253,77.047z M25.388,78.84   c-0.069-0.033-0.133-0.04-0.193-0.035c-0.421-0.261-0.842-0.521-1.264-0.782c0.73,0.422,1.473,0.823,2.234,1.192L25.388,78.84z    M28.435,80.235c-0.063-0.023-0.119-0.02-0.171-0.008c-0.643-0.31-1.287-0.621-1.93-0.931c0.888,0.425,1.795,0.811,2.719,1.161   C28.847,80.383,28.641,80.309,28.435,80.235z M31.517,81.342c-0.589-0.212-1.178-0.423-1.767-0.635   c0.639,0.226,1.285,0.434,1.938,0.623C31.627,81.317,31.57,81.324,31.517,81.342z M34.858,82.104   c-0.105-0.026-0.21-0.051-0.315-0.077c0.121,0.024,0.242,0.048,0.363,0.071C34.891,82.102,34.872,82.099,34.858,82.104z    M40.42,80.633C23.224,81.009,9.746,66.224,9.383,49.595C9.006,32.399,23.792,18.921,40.42,18.558   c16.396-0.359,29.402,13.067,30.893,28.731c-9.076,0.013-18.152,0.027-27.228,0.04c-0.794-1.189-2.216-1.96-3.665-2.038   c-2.428-0.131-4.184,2.068-4.305,4.305c0.131,2.434,1.871,4.174,4.305,4.305c1.741,0.094,3.123-1.016,3.818-2.472   c9.043-0.013,18.085-0.026,27.128-0.04C70.129,67.719,57.014,80.27,40.42,80.633z M42.675,49.595c0.157,2.909-4.354,2.894-4.51,0   C38.322,46.688,42.519,46.688,42.675,49.595z M90.896,49.308c0.071-1.323,1.979-1.323,2.05,0   C93.017,50.633,90.967,50.625,90.896,49.308z"/></g><text x="0" y="115" fill="#000000" font-size="5px" font-weight="bold" font-family="'Helvetica Neue', Helvetica, Arial-Unicode, Arial, Sans-serif">Created by Luke Salmond</text><text x="0" y="120" fill="#000000" font-size="5px" font-weight="bold" font-family="'Helvetica Neue', Helvetica, Arial-Unicode, Arial, Sans-serif">from the Noun Project</text></svg>