<svg xmlns="http://www.w3.org/2000/svg" xmlns:xlink="http://www.w3.org/1999/xlink" version="1.1" x="0px" y="0px" viewBox="0 0 100 125" enable-background="new 0 0 100 100" xml:space="preserve"><g><g><path fill="none" d="M72.373,25.342c-1.188,0.118-2.057,1.299-2.862,2.105c-1.332,1.332-2.665,2.665-3.997,3.997    c-0.751,0.751-1.503,1.503-2.254,2.254c-0.139,0.139-0.279,0.279-0.418,0.418c-0.224,0.224-0.564,0.079-0.831,0.059    c-0.531-0.039-1.065-0.046-1.595,0.013c-2.462,0.276-4.877,1.296-7.09,2.36c-2.38,1.145-4.692,2.472-6.867,3.971    c-3.627,2.5-6.596,5.961-9.712,9.077c-7.256,7.256-14.513,14.513-21.769,21.769c-1.886,1.886-3.771,3.771-5.657,5.657    c-0.299,0.299-0.301,0.54-0.402,0.927c-0.105,0.404-0.731,0.816-1.016,1.103c-0.453,0.455-0.906,0.909-1.358,1.364    c-0.289,0.291-0.828,0.673-0.688,1.161c0.099,0.345,0.367,0.68,0.743,0.743c0.518,0.086,0.831-0.367,1.156-0.694    c0.453-0.455,0.906-0.91,1.359-1.365c0.286-0.287,0.697-0.917,1.101-1.022c0.968-0.253,1.515-0.995,2.212-1.691    c6.92-6.92,13.84-13.84,20.76-20.76c2.603-2.603,5.206-5.206,7.809-7.808c1.726-1.726,3.332-3.588,5.252-5.108    c1.876-1.486,3.936-2.764,6.037-3.905c2.198-1.194,4.468-2.272,6.893-2.917c0.311-0.083,0.604,0.213,0.523,0.523    c-0.42,1.592,1.14,3.137,2.727,2.705c0.313-0.085,0.601,0.214,0.523,0.523c-0.734,2.876-2.141,5.619-3.642,8.164    c-1.272,2.156-2.637,4.356-4.417,6.138c-1.478,1.479-2.964,2.95-4.443,4.429c-6.841,6.841-13.682,13.682-20.523,20.523    c-2.7,2.7-5.399,5.399-8.099,8.099c-0.215,0.215-0.431,0.431-0.646,0.646c-0.316,0.316-0.285,0.717-0.485,1.069    c-0.164,0.288-0.51,0.532-0.74,0.762c-0.495,0.495-0.989,0.989-1.484,1.484c-0.228,0.228-0.719,0.587-0.792,0.925    c-0.17,0.789,0.819,1.47,1.435,0.854c0.259-0.259,0.519-0.519,0.778-0.778c0.491-0.491,0.982-0.982,1.473-1.473    c0.212-0.212,0.453-0.565,0.774-0.597c0.523-0.052,0.801-0.373,1.132-0.704c0.885-0.885,1.769-1.769,2.654-2.654    c3.452-3.452,6.904-6.904,10.357-10.357c5.69-5.69,11.379-11.379,17.069-17.069c1.653-1.653,3.394-3.192,4.849-5.033    c1.724-2.181,3.17-4.568,4.464-7.025c1.167-2.216,2.263-4.523,2.81-6.981c0.157-0.706,0.316-1.434,0.339-2.16    c0.017-0.537-0.101-1.057-0.101-1.585c0-0.215,0.168-0.346,0.306-0.483c1.628-1.628,3.256-3.256,4.884-4.884    c0.824-0.824,1.647-1.647,2.471-2.471c0.606-0.606,1.179-1.17,1.253-2.03C73.672,27.385,72.587,26.295,72.373,25.342z"/><path fill="none" d="M92.884,5.924c-0.122,0.085-0.216,0.181-0.319,0.284c-0.41,0.41-0.819,0.819-1.229,1.229    C85.382,13.391,79.428,19.345,73.473,25.3c-0.047,0.047-0.107,0.077-0.169,0.098c0.226,0.512,0.77,1.056,1.282,1.281    c0.021-0.061,0.051-0.121,0.097-0.167c0.456-0.456,0.913-0.913,1.369-1.369c5.955-5.955,11.91-11.91,17.865-17.865    C94.509,6.613,93.686,5.37,92.884,5.924z"/><path d="M91.982,5.58c-1,1-2,2-3.001,3.001c-3.768,3.768-7.537,7.537-11.305,11.305c-1.547,1.547-3.094,3.094-4.641,4.641    c-0.054-0.011-0.107-0.029-0.162-0.037c-0.012-0.002-0.018,0.008-0.029,0.006c-0.027-0.007-0.053-0.018-0.079-0.02    c-1.214-0.125-2.032,0.538-2.828,1.333c-0.925,0.925-1.85,1.85-2.776,2.776c-1.6,1.6-3.2,3.2-4.801,4.801    c-2.046-0.236-4.031,0.253-5.955,0.946c-2.387,0.86-4.669,1.987-6.866,3.249c-2.239,1.286-4.441,2.7-6.375,4.418    c-1.434,1.273-2.73,2.699-4.084,4.053c-2.006,2.006-4.012,4.012-6.018,6.018c-7.225,7.225-14.449,14.449-21.674,21.674    c-0.82,0.82-1.64,1.64-2.46,2.46c-0.377,0.377-0.678,0.765-0.817,1.302C8,77.943,7.388,78.357,7.071,78.676    c-0.453,0.455-0.905,0.909-1.358,1.364c-0.515,0.517-0.809,1.01-0.685,1.756c0.201,1.204,1.706,1.739,2.656,1.08    c0.92-0.638,1.7-1.67,2.489-2.464c0.459-0.461,1.093-0.492,1.569-0.968c0.561-0.561,1.122-1.122,1.683-1.683    c7.041-7.041,14.081-14.081,21.122-21.122c2.363-2.363,4.725-4.725,7.088-7.088c1.587-1.587,3.089-3.252,4.791-4.723    c1.802-1.558,3.922-2.801,5.995-3.958c2.028-1.132,4.14-2.136,6.368-2.801c-0.015,1.69,1.452,3.153,3.142,3.126    c-0.696,2.383-1.834,4.639-3.048,6.793c-1.151,2.039-2.42,4.087-3.972,5.849c-1.444,1.64-3.086,3.106-4.631,4.651    c-2.676,2.676-5.351,5.351-8.027,8.027c-6.861,6.861-13.723,13.723-20.584,20.584c-0.649,0.649-1.499,1.303-1.739,2.222    c-0.049,0.188,0.172-0.05-0.07,0.192c-0.17,0.17-0.341,0.341-0.511,0.511c-0.495,0.495-0.989,0.989-1.484,1.484    c-0.72,0.72-1.338,1.38-0.894,2.464c0.452,1.104,1.947,1.326,2.754,0.519c0.778-0.778,1.556-1.556,2.335-2.335    c0.118-0.118,0.236-0.236,0.354-0.354c-0.178,0.178,0.486-0.081,0.614-0.137c0.223-0.098,0.414-0.285,0.585-0.457    c0.225-0.225,0.45-0.45,0.675-0.675c6.661-6.661,13.322-13.322,19.983-19.983c2.882-2.882,5.764-5.764,8.646-8.646    c0.979-0.979,1.985-1.926,2.975-2.894c3.784-3.7,6.63-8.219,8.816-13.02c1.154-2.535,2.244-5.517,1.872-8.349    c1.563-1.563,3.126-3.126,4.689-4.689c0.947-0.947,1.895-1.895,2.842-2.842c0.816-0.816,1.527-1.638,1.398-2.893    c-0.003-0.027-0.015-0.047-0.022-0.071c-0.002-0.014,0.011-0.023,0.008-0.037c-0.008-0.055-0.026-0.107-0.038-0.161    c5.899-5.899,11.797-11.797,17.696-17.696c0.456-0.456,0.913-0.913,1.369-1.369C96.045,6.172,93.582,3.981,91.982,5.58z     M73.372,29.639c-0.824,0.824-1.647,1.647-2.471,2.471c-1.628,1.628-3.256,3.256-4.884,4.884    c-0.137,0.137-0.306,0.268-0.306,0.483c0,0.528,0.118,1.048,0.101,1.585c-0.023,0.725-0.181,1.454-0.339,2.16    c-0.547,2.458-1.643,4.765-2.81,6.981c-1.294,2.457-2.74,4.844-4.464,7.025c-1.456,1.841-3.196,3.381-4.849,5.033    c-5.69,5.69-11.38,11.38-17.069,17.069c-3.452,3.452-6.904,6.904-10.357,10.357c-0.885,0.885-1.769,1.769-2.654,2.654    c-0.332,0.332-0.609,0.652-1.132,0.704c-0.321,0.032-0.562,0.385-0.774,0.597c-0.491,0.491-0.982,0.982-1.473,1.473    c-0.259,0.259-0.519,0.519-0.778,0.778c-0.616,0.616-1.605-0.065-1.435-0.854c0.073-0.338,0.564-0.697,0.792-0.925    c0.495-0.495,0.989-0.989,1.484-1.484c0.23-0.23,0.576-0.474,0.74-0.762c0.2-0.352,0.169-0.753,0.485-1.069    c0.215-0.215,0.431-0.431,0.646-0.646c2.7-2.7,5.399-5.399,8.099-8.099c6.841-6.841,13.682-13.682,20.523-20.523    c1.479-1.479,2.965-2.949,4.443-4.429c1.78-1.781,3.145-3.981,4.417-6.138c1.502-2.545,2.909-5.288,3.642-8.164    c0.079-0.309-0.21-0.608-0.523-0.523c-1.587,0.432-3.146-1.113-2.727-2.705c0.082-0.31-0.212-0.605-0.523-0.523    c-2.425,0.645-4.695,1.723-6.893,2.917c-2.101,1.141-4.161,2.42-6.037,3.905c-1.92,1.52-3.526,3.382-5.252,5.108    c-2.603,2.603-5.206,5.206-7.809,7.808c-6.92,6.92-13.84,13.84-20.76,20.76c-0.696,0.696-1.244,1.438-2.212,1.691    c-0.404,0.106-0.815,0.735-1.101,1.022c-0.453,0.455-0.906,0.91-1.359,1.365c-0.325,0.327-0.638,0.78-1.156,0.694    c-0.376-0.062-0.644-0.398-0.743-0.743c-0.14-0.488,0.399-0.87,0.688-1.161c0.453-0.455,0.905-0.909,1.358-1.364    c0.286-0.287,0.911-0.7,1.016-1.103c0.101-0.388,0.104-0.629,0.402-0.927c1.886-1.886,3.771-3.771,5.657-5.657    c7.256-7.256,14.513-14.513,21.769-21.769c3.116-3.116,6.085-6.577,9.712-9.077c2.175-1.499,4.487-2.826,6.867-3.971    c2.213-1.064,4.628-2.085,7.09-2.36c0.53-0.059,1.064-0.052,1.595-0.013c0.267,0.02,0.606,0.165,0.831-0.059    c0.139-0.139,0.279-0.279,0.418-0.418c0.751-0.751,1.503-1.503,2.254-2.254c1.332-1.332,2.665-2.665,3.997-3.997    c0.805-0.805,1.675-1.986,2.862-2.105c0.214,0.953,1.299,2.043,2.252,2.267C74.551,28.469,73.978,29.033,73.372,29.639z     M93.917,7.278c-5.955,5.955-11.91,11.91-17.865,17.865c-0.456,0.456-0.913,0.913-1.369,1.369    c-0.046,0.046-0.075,0.105-0.097,0.167c-0.512-0.225-1.056-0.769-1.282-1.281c0.062-0.021,0.122-0.051,0.169-0.098    c5.954-5.954,11.909-11.909,17.863-17.863c0.41-0.41,0.819-0.819,1.229-1.229c0.103-0.103,0.197-0.199,0.319-0.284    C93.686,5.37,94.509,6.613,93.917,7.278z"/></g></g><text x="0" y="115" fill="#000000" font-size="5px" font-weight="bold" font-family="'Helvetica Neue', Helvetica, Arial-Unicode, Arial, Sans-serif">Created by Luke Salmond</text><text x="0" y="120" fill="#000000" font-size="5px" font-weight="bold" font-family="'Helvetica Neue', Helvetica, Arial-Unicode, Arial, Sans-serif">from the Noun Project</text></svg>