<svg xmlns="http://www.w3.org/2000/svg" xmlns:xlink="http://www.w3.org/1999/xlink" version="1.1" x="0px" y="0px" viewBox="0 0 100 100" enable-background="new 0 0 100 100" xml:space="preserve"><g><path fill="#000000" d="M50,58.585c-4.734,0-8.585-3.852-8.585-8.585c0-4.734,3.851-8.585,8.585-8.585   c4.733,0,8.585,3.851,8.585,8.585C58.585,54.733,54.733,58.585,50,58.585z M50,42.415c-4.182,0-7.585,3.403-7.585,7.585   c0,4.183,3.403,7.585,7.585,7.585c4.183,0,7.585-3.402,7.585-7.585C57.585,45.818,54.183,42.415,50,42.415z M50,54.424   c-2.439,0-4.424-1.984-4.424-4.424s1.984-4.424,4.424-4.424s4.424,1.984,4.424,4.424S52.439,54.424,50,54.424z M50,46.576   c-1.888,0-3.424,1.536-3.424,3.424s1.536,3.424,3.424,3.424s3.424-1.536,3.424-3.424S51.888,46.576,50,46.576z M50,9.5   c22.332,0,40.5,18.168,40.5,40.5c0,22.332-18.168,40.5-40.5,40.5C27.668,90.5,9.5,72.332,9.5,50C9.5,27.668,27.668,9.5,50,9.5    M50,5.5C25.423,5.5,5.5,25.423,5.5,50c0,24.577,19.923,44.5,44.5,44.5c24.577,0,44.5-19.923,44.5-44.5   C94.5,25.423,74.577,5.5,50,5.5L50,5.5z M50,6h-1v36h1V6z M48.611,42.121L42.359,6.668l-0.984,0.174l6.252,35.453L48.611,42.121z    M47.265,42.482L34.951,8.653l-0.939,0.342l12.313,33.829L47.265,42.482z M46.001,43.071L28,11.895l-0.866,0.5l18.001,31.177   L46.001,43.071z M44.859,43.871L21.718,16.294l-0.766,0.643l23.142,27.577L44.859,43.871z M43.874,44.857l-27.579-23.14   l-0.643,0.766l27.579,23.14L43.874,44.857z M43.074,45.999L11.896,28l-0.5,0.866l31.178,17.999L43.074,45.999z M42.484,47.262   L8.655,34.95L8.313,35.89l33.829,12.312L42.484,47.262z M42.123,48.608l-35.452-6.25l-0.174,0.984l35.452,6.25L42.123,48.608z    M42,50.997v-1L6,49.999v1L42,50.997z M42.296,52.371l-0.174-0.984L6.67,57.639l0.174,0.984L42.296,52.371z M42.825,53.673   l-0.342-0.939L8.655,65.046l0.342,0.939L42.825,53.673z M43.572,54.862l-0.5-0.865l-31.176,18l0.5,0.865L43.572,54.862z    M44.515,55.904l-0.643-0.766L16.296,78.279l0.643,0.766L44.515,55.904z M45.623,56.767l-0.766-0.643L21.719,83.702l0.766,0.643   L45.623,56.767z M46.865,57.424l-0.866-0.5L28,88.102l0.866,0.5L46.865,57.424z M48.201,57.855l-0.939-0.342L34.951,91.343   l0.939,0.342L48.201,57.855z M49.593,58.049l-0.984-0.174l-6.249,35.452l0.984,0.174L49.593,58.049z M50.999,94l-0.002-36h-1   l0.002,36H50.999z M58.624,93.153l-6.253-35.451l-0.984,0.174l6.253,35.451L58.624,93.153z M65.987,91.001L53.673,57.174   l-0.939,0.342l12.314,33.827L65.987,91.001z M72.864,87.602L54.862,56.427l-0.865,0.5l18.002,31.175L72.864,87.602z M79.047,83.06   L55.904,55.484l-0.766,0.643l23.143,27.575L79.047,83.06z M84.347,77.514l-27.58-23.139l-0.643,0.766l27.58,23.139L84.347,77.514z    M88.603,71.132L57.424,53.134l-0.5,0.865l31.179,17.998L88.603,71.132z M91.686,64.106l-33.83-12.31l-0.342,0.939l33.83,12.31   L91.686,64.106z M93.502,56.654l-35.453-6.249l-0.174,0.985l35.453,6.248L93.502,56.654z M94,49.999v-1l-36,0.002v1L94,49.999z    M93.328,42.359l-0.174-0.984l-35.452,6.253l0.174,0.984L93.328,42.359z M91.343,34.951l-0.342-0.939L57.174,46.326l0.342,0.939   L91.343,34.951z M88.102,28l-0.5-0.866L56.428,45.136l0.5,0.866L88.102,28z M83.702,21.718l-0.643-0.766L55.485,44.094l0.643,0.766   L83.702,21.718z M78.279,16.295l-0.766-0.643L54.377,43.231l0.766,0.643L78.279,16.295z M71.997,11.896l-0.865-0.5L53.136,42.574   l0.865,0.5L71.997,11.896z M65.047,8.655l-0.939-0.342L51.799,42.143l0.939,0.342L65.047,8.655z M57.639,6.671l-0.984-0.174   l-6.247,35.452l0.984,0.174L57.639,6.671z M50.442,5.257h-1.717v0.666h1.717V5.257z M46.54,5.389l-1.71,0.149l0.058,0.663   l1.711-0.149L46.54,5.389z M42.665,5.859l-1.69,0.298l0.115,0.656l1.691-0.298L42.665,5.859z M38.846,6.667L37.188,7.11   l0.172,0.643l1.659-0.444L38.846,6.667z M35.111,7.804L33.498,8.39l0.228,0.625l1.614-0.587L35.111,7.804z M31.49,9.262   l-1.556,0.725l0.281,0.604l1.557-0.726L31.49,9.262z M28.01,11.03l-1.486,0.857l0.333,0.577l1.487-0.858L28.01,11.03z    M24.697,13.094l-1.406,0.984l0.382,0.545l1.407-0.985L24.697,13.094z M21.577,15.439l-1.315,1.103l0.428,0.51l1.316-1.104   L21.577,15.439z M18.673,18.048l-1.214,1.214l0.471,0.471l1.215-1.215L18.673,18.048z M16.007,20.899l-1.104,1.315l0.511,0.428   l1.104-1.316L16.007,20.899z M13.601,23.973l-0.985,1.406l0.546,0.382l0.985-1.408L13.601,23.973z M11.471,27.244l-0.859,1.486   l0.577,0.333l0.859-1.488L11.471,27.244z M9.634,30.688l-0.727,1.556l0.604,0.281l0.727-1.557L9.634,30.688z M8.104,34.28   l-0.589,1.613l0.627,0.228l0.589-1.615L8.104,34.28z M6.894,37.991l-0.445,1.659l0.644,0.172l0.446-1.66L6.894,37.991z    M6.011,41.793l-0.299,1.691L6.368,43.6l0.3-1.692L6.011,41.793z M5.463,45.658l-0.15,1.711l0.664,0.058l0.15-1.712L5.463,45.658z    M5.254,49.556l-0.001,1.717H5.92l0.001-1.719L5.254,49.556z M5.386,53.457l0.148,1.711l0.664-0.058L6.05,53.397L5.386,53.457z    M5.856,57.332l0.297,1.691l0.657-0.115l-0.298-1.693L5.856,57.332z M6.663,61.151l0.443,1.659l0.645-0.172l-0.443-1.661   L6.663,61.151z M7.8,64.886L8.386,66.5l0.628-0.228l-0.587-1.616L7.8,64.886z M9.258,68.507l0.725,1.558l0.605-0.281l-0.726-1.56   L9.258,68.507z M11.025,71.987l0.858,1.488l0.578-0.333l-0.858-1.49L11.025,71.987z M13.09,75.3l0.985,1.408l0.547-0.382   l-0.985-1.41L13.09,75.3z M15.436,78.42l1.104,1.317l0.512-0.428l-1.105-1.319L15.436,78.42z M18.044,81.324l1.216,1.216   l0.472-0.471l-1.216-1.218L18.044,81.324z M20.896,83.99l1.317,1.105l0.429-0.511l-1.317-1.107L20.896,83.99z M23.969,86.396   l1.408,0.987l0.383-0.546l-1.409-0.989L23.969,86.396z M27.24,88.526l1.489,0.86l0.333-0.577l-1.489-0.862L27.24,88.526z    M30.685,90.363l1.559,0.727l0.281-0.604l-1.559-0.729L30.685,90.363z M34.275,91.894l1.616,0.587l0.228-0.625l-1.616-0.59   L34.275,91.894z M37.986,93.104l1.661,0.443l0.173-0.642l-1.661-0.447L37.986,93.104z M41.789,93.987l1.693,0.297l0.116-0.653   l-1.693-0.303L41.789,93.987z M45.654,94.535l1.713,0.148l0.059-0.661l-1.713-0.153L45.654,94.535z M49.553,94.744l1.719-0.001   l0.001-0.665l-1.72-0.002V94.744z M53.454,94.613l1.712-0.15l-0.057-0.664l-1.714,0.148L53.454,94.613z M57.329,94.143l1.692-0.299   l-0.114-0.657l-1.694,0.298L57.329,94.143z M61.148,93.336l1.66-0.445l-0.172-0.645l-1.661,0.443L61.148,93.336z M64.883,92.199   l1.615-0.588l-0.228-0.628l-1.616,0.587L64.883,92.199z M68.504,90.74l1.558-0.725l-0.281-0.606l-1.559,0.726L68.504,90.74z    M71.984,88.973l1.488-0.857l-0.333-0.58l-1.489,0.859L71.984,88.973z M75.297,86.908l1.408-0.984l-0.382-0.549l-1.409,0.986   L75.297,86.908z M78.418,84.563l1.316-1.104l-0.428-0.514l-1.318,1.105L78.418,84.563z M81.322,81.953l1.215-1.213l-0.471-0.475   l-1.217,1.216L81.322,81.953z M83.988,79.102l1.104-1.314l-0.511-0.432l-1.106,1.316L83.988,79.102z M86.395,76.028l0.986-1.405   l-0.546-0.386l-0.988,1.407L86.395,76.028z M88.524,72.757l0.86-1.485l-0.578-0.337l-0.861,1.487L88.524,72.757z M90.361,69.313   l0.728-1.555l-0.605-0.285l-0.729,1.557L90.361,69.313z M91.892,65.721l0.589-1.611l-0.628-0.231l-0.591,1.614L91.892,65.721z    M93.103,62.01l0.445-1.656l-0.645-0.176l-0.448,1.659L93.103,62.01z M93.985,58.207l0.299-1.688l-0.657-0.119l-0.302,1.692   L93.985,58.207z M94.534,54.342l0.149-1.708l-0.665-0.062l-0.153,1.713L94.534,54.342z M94.743,50.444v-1.715l-0.668-0.003   l-0.003,1.719L94.743,50.444z M94.612,46.542l-0.149-1.708l-0.667,0.056l0.147,1.712L94.612,46.542z M94.142,42.667l-0.298-1.689   l-0.66,0.114l0.297,1.693L94.142,42.667z M93.335,38.848l-0.444-1.657l-0.647,0.171l0.442,1.661L93.335,38.848z M92.198,35.113   l-0.587-1.612l-0.631,0.226l0.586,1.616L92.198,35.113z M90.739,31.492l-0.724-1.555l-0.609,0.281l0.725,1.559L90.739,31.492z    M88.971,28.012l-0.855-1.486l-0.583,0.333l0.858,1.49L88.971,28.012z M86.906,24.699l-0.982-1.406l-0.551,0.382l0.984,1.41   L86.906,24.699z M84.561,21.578l-1.101-1.315l-0.516,0.429l1.104,1.318L84.561,21.578z M81.952,18.674l-1.211-1.214l-0.477,0.472   l1.214,1.217L81.952,18.674z M79.101,16.008l-1.313-1.104l-0.434,0.512l1.315,1.106L79.101,16.008z M76.027,13.601l-1.404-0.985   l-0.387,0.548l1.406,0.988L76.027,13.601z M72.756,11.47l-1.484-0.859l-0.338,0.58l1.487,0.861L72.756,11.47z M69.311,9.633   l-1.553-0.726l-0.286,0.606l1.557,0.729L69.311,9.633z M65.719,8.104l-1.61-0.588l-0.231,0.629l1.614,0.591L65.719,8.104z    M62.007,6.893l-1.654-0.445l-0.176,0.647l1.659,0.448L62.007,6.893z M58.204,6.01l-1.687-0.3l-0.119,0.66l1.692,0.302L58.204,6.01   z M54.339,5.462l-1.706-0.152l-0.062,0.668l1.713,0.153L54.339,5.462z M50,50"></path></g></svg>